solid OpenSCAD_Model
  facet normal -1 -0 -0
    outer loop
      vertex -42.5 12 0
      vertex -42.5 12 12
      vertex -42.5 27 0
    endloop
  endfacet
  facet normal -1 0 0
    outer loop
      vertex -42.5 27 0
      vertex -42.5 12 12
      vertex -42.5 27 12
    endloop
  endfacet
  facet normal 0 -1 0
    outer loop
      vertex -42.5 12 12
      vertex -42.5 12 0
      vertex -41.5 12 0
    endloop
  endfacet
  facet normal 0 -1 0
    outer loop
      vertex -41.5 12 12
      vertex -42.5 12 12
      vertex -41.5 12 0
    endloop
  endfacet
  facet normal -0 -0 -1
    outer loop
      vertex -42.5 12 0
      vertex -42.5 27 0
      vertex -41.5 12 0
    endloop
  endfacet
  facet normal 0 -0 -1
    outer loop
      vertex -34.0438 20.058 0
      vertex -42.5 27 0
      vertex -7.5 27 0
    endloop
  endfacet
  facet normal -0 0 -1
    outer loop
      vertex -8.5 12 0
      vertex -7.5 27 0
      vertex -7.5 12 0
    endloop
  endfacet
  facet normal -0 0 -1
    outer loop
      vertex -13.0438 17.942 0
      vertex -7.5 27 0
      vertex -8.5 12 0
    endloop
  endfacet
  facet normal -0 0 -1
    outer loop
      vertex -33.7 19 0
      vertex -7.5 27 0
      vertex -34.0438 17.942 0
    endloop
  endfacet
  facet normal 0 0 -1
    outer loop
      vertex -8.5 12 0
      vertex -8.5 0 0
      vertex -41.5 12 0
    endloop
  endfacet
  facet normal 0 -0 -1
    outer loop
      vertex -41.5 12 0
      vertex -42.5 27 0
      vertex -37.3 19 0
    endloop
  endfacet
  facet normal 0 0 -1
    outer loop
      vertex -41.5 12 0
      vertex -37.3 19 0
      vertex -36.9562 17.942 0
    endloop
  endfacet
  facet normal 0 0 -1
    outer loop
      vertex -41.5 12 0
      vertex -36.9562 17.942 0
      vertex -36.0562 17.2881 0
    endloop
  endfacet
  facet normal 0 0 -1
    outer loop
      vertex -41.5 12 0
      vertex -36.0562 17.2881 0
      vertex -34.9438 17.2881 0
    endloop
  endfacet
  facet normal 0 0 -1
    outer loop
      vertex -41.5 12 0
      vertex -34.9438 17.2881 0
      vertex -7.5 27 0
    endloop
  endfacet
  facet normal 0 0 -1
    outer loop
      vertex -34.9438 17.2881 0
      vertex -34.0438 17.942 0
      vertex -7.5 27 0
    endloop
  endfacet
  facet normal -0 0 -1
    outer loop
      vertex -34.0438 20.058 0
      vertex -7.5 27 0
      vertex -33.7 19 0
    endloop
  endfacet
  facet normal -0 -0 -1
    outer loop
      vertex -34.9438 20.7119 0
      vertex -42.5 27 0
      vertex -34.0438 20.058 0
    endloop
  endfacet
  facet normal 0 0 -1
    outer loop
      vertex -13.9438 17.2881 0
      vertex -8.5 12 0
      vertex -15.0562 17.2881 0
    endloop
  endfacet
  facet normal -0 -0 -1
    outer loop
      vertex -36.0562 20.7119 0
      vertex -42.5 27 0
      vertex -34.9438 20.7119 0
    endloop
  endfacet
  facet normal 0 -0 -1
    outer loop
      vertex -36.9562 20.058 0
      vertex -42.5 27 0
      vertex -36.0562 20.7119 0
    endloop
  endfacet
  facet normal 0 -0 -1
    outer loop
      vertex -37.3 19 0
      vertex -42.5 27 0
      vertex -36.9562 20.058 0
    endloop
  endfacet
  facet normal 0 0 -1
    outer loop
      vertex -41.5 12 0
      vertex -16.3 19 0
      vertex -15.9562 17.942 0
    endloop
  endfacet
  facet normal -0 0 -1
    outer loop
      vertex -41.5 12 0
      vertex -15.9562 17.942 0
      vertex -8.5 12 0
    endloop
  endfacet
  facet normal 0 0 -1
    outer loop
      vertex -15.9562 17.942 0
      vertex -15.0562 17.2881 0
      vertex -8.5 12 0
    endloop
  endfacet
  facet normal -0 0 -1
    outer loop
      vertex -15.0562 20.7119 0
      vertex -7.5 27 0
      vertex -13.9438 20.7119 0
    endloop
  endfacet
  facet normal -0 0 -1
    outer loop
      vertex -13.0438 20.058 0
      vertex -7.5 27 0
      vertex -12.7 19 0
    endloop
  endfacet
  facet normal -0 0 -1
    outer loop
      vertex -12.7 19 0
      vertex -7.5 27 0
      vertex -13.0438 17.942 0
    endloop
  endfacet
  facet normal -0 0 -1
    outer loop
      vertex -13.9438 17.2881 0
      vertex -13.0438 17.942 0
      vertex -8.5 12 0
    endloop
  endfacet
  facet normal -0 0 -1
    outer loop
      vertex -13.9438 20.7119 0
      vertex -7.5 27 0
      vertex -13.0438 20.058 0
    endloop
  endfacet
  facet normal 0 0 -1
    outer loop
      vertex -41.5 12 0
      vertex -7.5 27 0
      vertex -15.0562 20.7119 0
    endloop
  endfacet
  facet normal 0 0 -1
    outer loop
      vertex -41.5 12 0
      vertex -15.0562 20.7119 0
      vertex -15.9562 20.058 0
    endloop
  endfacet
  facet normal 0 0 -1
    outer loop
      vertex -41.5 12 0
      vertex -15.9562 20.058 0
      vertex -16.3 19 0
    endloop
  endfacet
  facet normal 0 0 -1
    outer loop
      vertex -41.5 12 0
      vertex -8.5 0 0
      vertex -41.5 0 0
    endloop
  endfacet
  facet normal 0 1 0
    outer loop
      vertex -42.5 27 0
      vertex -42.5 27 12
      vertex -7.5 27 0
    endloop
  endfacet
  facet normal 0 1 0
    outer loop
      vertex -7.5 27 0
      vertex -42.5 27 12
      vertex -7.5 27 12
    endloop
  endfacet
  facet normal 0 -0 1
    outer loop
      vertex -42.5 27 12
      vertex -42.5 12 12
      vertex -41.5 12 12
    endloop
  endfacet
  facet normal -0 0 1
    outer loop
      vertex -39 19 12
      vertex -42.5 27 12
      vertex -41.5 15 12
    endloop
  endfacet
  facet normal -0 0 1
    outer loop
      vertex -41.5 15 12
      vertex -42.5 27 12
      vertex -41.5 12 12
    endloop
  endfacet
  facet normal -0 0 1
    outer loop
      vertex -7.5 12 12
      vertex -8.5 15 12
      vertex -8.5 12 12
    endloop
  endfacet
  facet normal 0 0 1
    outer loop
      vertex -7.5 27 12
      vertex -8.5 15 12
      vertex -7.5 12 12
    endloop
  endfacet
  facet normal -0 0 1
    outer loop
      vertex -8.5 15 12
      vertex -37.25 15.9689 12
      vertex -41.5 15 12
    endloop
  endfacet
  facet normal -0 0 1
    outer loop
      vertex -37.25 15.9689 12
      vertex -39 19 12
      vertex -41.5 15 12
    endloop
  endfacet
  facet normal -0 0 1
    outer loop
      vertex -33.75 22.0311 12
      vertex -42.5 27 12
      vertex -37.25 22.0311 12
    endloop
  endfacet
  facet normal 0 0 1
    outer loop
      vertex -16.25 15.9689 12
      vertex -33.75 22.0311 12
      vertex -32 19 12
    endloop
  endfacet
  facet normal 0 0 1
    outer loop
      vertex -16.25 22.0311 12
      vertex -12.75 22.0311 12
      vertex -7.5 27 12
    endloop
  endfacet
  facet normal 0 0 1
    outer loop
      vertex -8.5 15 12
      vertex -33.75 15.9689 12
      vertex -37.25 15.9689 12
    endloop
  endfacet
  facet normal -0 0 1
    outer loop
      vertex -16.25 15.9689 12
      vertex -32 19 12
      vertex -33.75 15.9689 12
    endloop
  endfacet
  facet normal 0 0 1
    outer loop
      vertex -8.5 15 12
      vertex -16.25 15.9689 12
      vertex -33.75 15.9689 12
    endloop
  endfacet
  facet normal -0 0 1
    outer loop
      vertex -16.25 22.0311 12
      vertex -42.5 27 12
      vertex -18 19 12
    endloop
  endfacet
  facet normal 0 -0 1
    outer loop
      vertex -11 19 12
      vertex -12.75 15.9689 12
      vertex -8.5 15 12
    endloop
  endfacet
  facet normal 0 0 1
    outer loop
      vertex -7.5 27 12
      vertex -42.5 27 12
      vertex -16.25 22.0311 12
    endloop
  endfacet
  facet normal 0 0 1
    outer loop
      vertex -7.5 27 12
      vertex -12.75 22.0311 12
      vertex -8.5 15 12
    endloop
  endfacet
  facet normal 0 0 1
    outer loop
      vertex -12.75 22.0311 12
      vertex -11 19 12
      vertex -8.5 15 12
    endloop
  endfacet
  facet normal 0 -0 1
    outer loop
      vertex -12.75 15.9689 12
      vertex -16.25 15.9689 12
      vertex -8.5 15 12
    endloop
  endfacet
  facet normal 0 0 1
    outer loop
      vertex -39 19 12
      vertex -37.25 22.0311 12
      vertex -42.5 27 12
    endloop
  endfacet
  facet normal 0 0 1
    outer loop
      vertex -16.25 15.9689 12
      vertex -42.5 27 12
      vertex -33.75 22.0311 12
    endloop
  endfacet
  facet normal 0 0 1
    outer loop
      vertex -16.25 15.9689 12
      vertex -18 19 12
      vertex -42.5 27 12
    endloop
  endfacet
  facet normal -1 0 0
    outer loop
      vertex -41.5 10.5 8
      vertex -41.5 12 0
      vertex -41.5 7.5 8
    endloop
  endfacet
  facet normal -1 0 -0
    outer loop
      vertex -41.5 0 0
      vertex -41.5 0 22
      vertex -41.5 7.5 8
    endloop
  endfacet
  facet normal -1 -0 0
    outer loop
      vertex -41.5 0 0
      vertex -41.5 7.5 8
      vertex -41.5 12 0
    endloop
  endfacet
  facet normal -1 -0 0
    outer loop
      vertex -41.5 12 12
      vertex -41.5 15 22
      vertex -41.5 15 12
    endloop
  endfacet
  facet normal -1 0 0
    outer loop
      vertex -41.5 12 0
      vertex -41.5 10.5 8
      vertex -41.5 10.5 21
    endloop
  endfacet
  facet normal -1 -0 0
    outer loop
      vertex -41.5 10.5 21
      vertex -41.5 11.5 22
      vertex -41.5 12 0
    endloop
  endfacet
  facet normal -1 0 -0
    outer loop
      vertex -41.5 12 12
      vertex -41.5 11.5 22
      vertex -41.5 15 22
    endloop
  endfacet
  facet normal -1 0 0
    outer loop
      vertex -41.5 12 0
      vertex -41.5 11.5 22
      vertex -41.5 12 12
    endloop
  endfacet
  facet normal -1 0 0
    outer loop
      vertex -41.5 7.5 8
      vertex -41.5 0 22
      vertex -41.5 7.5 22
    endloop
  endfacet
  facet normal 0 -1 0
    outer loop
      vertex -23 0 8
      vertex -41.5 0 0
      vertex -8.5 0 0
    endloop
  endfacet
  facet normal 0 -1 0
    outer loop
      vertex -27 0 8
      vertex -27 0 22
      vertex -41.5 0 22
    endloop
  endfacet
  facet normal 0 -1 0
    outer loop
      vertex -8.5 0 22
      vertex -23 0 22
      vertex -8.5 0 0
    endloop
  endfacet
  facet normal 0 -1 0
    outer loop
      vertex -27 0 8
      vertex -41.5 0 0
      vertex -23 0 8
    endloop
  endfacet
  facet normal 0 -1 0
    outer loop
      vertex -41.5 0 22
      vertex -41.5 0 0
      vertex -27 0 8
    endloop
  endfacet
  facet normal 0 -1 0
    outer loop
      vertex -23 0 22
      vertex -23 0 8
      vertex -8.5 0 0
    endloop
  endfacet
  facet normal 1 0 -0
    outer loop
      vertex -8.5 7.5 8
      vertex -8.5 0 0
      vertex -8.5 12 0
    endloop
  endfacet
  facet normal 1 0 -0
    outer loop
      vertex -8.5 10.5 8
      vertex -8.5 7.5 8
      vertex -8.5 12 0
    endloop
  endfacet
  facet normal 1 0 0
    outer loop
      vertex -8.5 7.5 8
      vertex -8.5 7.5 22
      vertex -8.5 0 22
    endloop
  endfacet
  facet normal 1 0 0
    outer loop
      vertex -8.5 15 22
      vertex -8.5 11.5 22
      vertex -8.5 15 12
    endloop
  endfacet
  facet normal 1 0 -0
    outer loop
      vertex -8.5 11.5 22
      vertex -8.5 10.5 21
      vertex -8.5 15 12
    endloop
  endfacet
  facet normal 1 0 0
    outer loop
      vertex -8.5 12 12
      vertex -8.5 10.5 8
      vertex -8.5 12 0
    endloop
  endfacet
  facet normal 1 0 -0
    outer loop
      vertex -8.5 0 22
      vertex -8.5 0 0
      vertex -8.5 7.5 8
    endloop
  endfacet
  facet normal 1 0 0
    outer loop
      vertex -8.5 10.5 21
      vertex -8.5 12 12
      vertex -8.5 15 12
    endloop
  endfacet
  facet normal 1 0 -0
    outer loop
      vertex -8.5 10.5 21
      vertex -8.5 10.5 8
      vertex -8.5 12 12
    endloop
  endfacet
  facet normal 0 -1 0
    outer loop
      vertex -8.5 12 12
      vertex -8.5 12 0
      vertex -7.5 12 0
    endloop
  endfacet
  facet normal 0 -1 0
    outer loop
      vertex -7.5 12 12
      vertex -8.5 12 12
      vertex -7.5 12 0
    endloop
  endfacet
  facet normal 1 0 -0
    outer loop
      vertex -7.5 12 12
      vertex -7.5 12 0
      vertex -7.5 27 0
    endloop
  endfacet
  facet normal 1 0 0
    outer loop
      vertex -7.5 27 12
      vertex -7.5 12 12
      vertex -7.5 27 0
    endloop
  endfacet
  facet normal 0.951057 -0.309017 0
    outer loop
      vertex -36.9562 20.058 0
      vertex -36.9562 20.058 8
      vertex -37.3 19 8
    endloop
  endfacet
  facet normal 0.951057 -0.309017 0
    outer loop
      vertex -37.3 19 0
      vertex -36.9562 20.058 0
      vertex -37.3 19 8
    endloop
  endfacet
  facet normal 0.951057 0.309017 0
    outer loop
      vertex -37.3 19 8
      vertex -36.9562 17.942 8
      vertex -36.9562 17.942 0
    endloop
  endfacet
  facet normal 0.951057 0.309017 0
    outer loop
      vertex -37.3 19 0
      vertex -37.3 19 8
      vertex -36.9562 17.942 0
    endloop
  endfacet
  facet normal 0.587786 -0.809017 0
    outer loop
      vertex -36.0562 20.7119 0
      vertex -36.0562 20.7119 8
      vertex -36.9562 20.058 8
    endloop
  endfacet
  facet normal 0.587786 -0.809017 0
    outer loop
      vertex -36.9562 20.058 0
      vertex -36.0562 20.7119 0
      vertex -36.9562 20.058 8
    endloop
  endfacet
  facet normal 0 -1 0
    outer loop
      vertex -34.9438 20.7119 0
      vertex -34.9438 20.7119 8
      vertex -36.0562 20.7119 8
    endloop
  endfacet
  facet normal -0 -1 -0
    outer loop
      vertex -36.0562 20.7119 0
      vertex -34.9438 20.7119 0
      vertex -36.0562 20.7119 8
    endloop
  endfacet
  facet normal -0.587786 -0.809017 -0
    outer loop
      vertex -34.0438 20.058 0
      vertex -34.0438 20.058 8
      vertex -34.9438 20.7119 8
    endloop
  endfacet
  facet normal -0.587786 -0.809017 -0
    outer loop
      vertex -34.9438 20.7119 0
      vertex -34.0438 20.058 0
      vertex -34.9438 20.7119 8
    endloop
  endfacet
  facet normal -0.951057 -0.309017 0
    outer loop
      vertex -33.7 19 8
      vertex -34.0438 20.058 8
      vertex -33.7 19 0
    endloop
  endfacet
  facet normal -0.951057 -0.309017 0
    outer loop
      vertex -33.7 19 0
      vertex -34.0438 20.058 8
      vertex -34.0438 20.058 0
    endloop
  endfacet
  facet normal -0.951057 0.309017 0
    outer loop
      vertex -33.7 19 8
      vertex -33.7 19 0
      vertex -34.0438 17.942 8
    endloop
  endfacet
  facet normal -0.951057 0.309017 0
    outer loop
      vertex -34.0438 17.942 8
      vertex -33.7 19 0
      vertex -34.0438 17.942 0
    endloop
  endfacet
  facet normal -0.587786 0.809017 0
    outer loop
      vertex -34.0438 17.942 8
      vertex -34.0438 17.942 0
      vertex -34.9438 17.2881 8
    endloop
  endfacet
  facet normal -0.587786 0.809017 0
    outer loop
      vertex -34.9438 17.2881 8
      vertex -34.0438 17.942 0
      vertex -34.9438 17.2881 0
    endloop
  endfacet
  facet normal 0 1 0
    outer loop
      vertex -34.9438 17.2881 8
      vertex -34.9438 17.2881 0
      vertex -36.0562 17.2881 8
    endloop
  endfacet
  facet normal 0 1 -0
    outer loop
      vertex -36.0562 17.2881 8
      vertex -34.9438 17.2881 0
      vertex -36.0562 17.2881 0
    endloop
  endfacet
  facet normal 0.587786 0.809017 -0
    outer loop
      vertex -36.0562 17.2881 8
      vertex -36.0562 17.2881 0
      vertex -36.9562 17.942 8
    endloop
  endfacet
  facet normal 0.587786 0.809017 -0
    outer loop
      vertex -36.9562 17.942 8
      vertex -36.0562 17.2881 0
      vertex -36.9562 17.942 0
    endloop
  endfacet
  facet normal 0.951057 0.309017 0
    outer loop
      vertex -16.3 19 8
      vertex -15.9562 17.942 8
      vertex -15.9562 17.942 0
    endloop
  endfacet
  facet normal 0.951057 0.309017 0
    outer loop
      vertex -16.3 19 0
      vertex -16.3 19 8
      vertex -15.9562 17.942 0
    endloop
  endfacet
  facet normal 0.951057 -0.309017 0
    outer loop
      vertex -15.9562 20.058 0
      vertex -15.9562 20.058 8
      vertex -16.3 19 8
    endloop
  endfacet
  facet normal 0.951057 -0.309017 0
    outer loop
      vertex -16.3 19 0
      vertex -15.9562 20.058 0
      vertex -16.3 19 8
    endloop
  endfacet
  facet normal 0.587786 -0.809017 0
    outer loop
      vertex -15.0562 20.7119 0
      vertex -15.0562 20.7119 8
      vertex -15.9562 20.058 8
    endloop
  endfacet
  facet normal 0.587786 -0.809017 0
    outer loop
      vertex -15.9562 20.058 0
      vertex -15.0562 20.7119 0
      vertex -15.9562 20.058 8
    endloop
  endfacet
  facet normal 0 -1 0
    outer loop
      vertex -13.9438 20.7119 0
      vertex -13.9438 20.7119 8
      vertex -15.0562 20.7119 8
    endloop
  endfacet
  facet normal -0 -1 -0
    outer loop
      vertex -15.0562 20.7119 0
      vertex -13.9438 20.7119 0
      vertex -15.0562 20.7119 8
    endloop
  endfacet
  facet normal -0.587786 -0.809017 -0
    outer loop
      vertex -13.0438 20.058 0
      vertex -13.0438 20.058 8
      vertex -13.9438 20.7119 8
    endloop
  endfacet
  facet normal -0.587786 -0.809017 -0
    outer loop
      vertex -13.9438 20.7119 0
      vertex -13.0438 20.058 0
      vertex -13.9438 20.7119 8
    endloop
  endfacet
  facet normal -0.951057 -0.309017 0
    outer loop
      vertex -12.7 19 8
      vertex -13.0438 20.058 8
      vertex -12.7 19 0
    endloop
  endfacet
  facet normal -0.951057 -0.309017 0
    outer loop
      vertex -12.7 19 0
      vertex -13.0438 20.058 8
      vertex -13.0438 20.058 0
    endloop
  endfacet
  facet normal -0.951057 0.309017 0
    outer loop
      vertex -12.7 19 8
      vertex -12.7 19 0
      vertex -13.0438 17.942 8
    endloop
  endfacet
  facet normal -0.951057 0.309017 0
    outer loop
      vertex -13.0438 17.942 8
      vertex -12.7 19 0
      vertex -13.0438 17.942 0
    endloop
  endfacet
  facet normal -0.587786 0.809017 0
    outer loop
      vertex -13.0438 17.942 8
      vertex -13.0438 17.942 0
      vertex -13.9438 17.2881 8
    endloop
  endfacet
  facet normal -0.587786 0.809017 0
    outer loop
      vertex -13.9438 17.2881 8
      vertex -13.0438 17.942 0
      vertex -13.9438 17.2881 0
    endloop
  endfacet
  facet normal 0 1 0
    outer loop
      vertex -13.9438 17.2881 8
      vertex -13.9438 17.2881 0
      vertex -15.0562 17.2881 8
    endloop
  endfacet
  facet normal 0 1 -0
    outer loop
      vertex -15.0562 17.2881 8
      vertex -13.9438 17.2881 0
      vertex -15.0562 17.2881 0
    endloop
  endfacet
  facet normal 0.587786 0.809017 -0
    outer loop
      vertex -15.0562 17.2881 8
      vertex -15.0562 17.2881 0
      vertex -15.9562 17.942 8
    endloop
  endfacet
  facet normal 0.587786 0.809017 -0
    outer loop
      vertex -15.9562 17.942 8
      vertex -15.0562 17.2881 0
      vertex -15.9562 17.942 0
    endloop
  endfacet
  facet normal 0 1 0
    outer loop
      vertex -41.5 15 12
      vertex -41.5 15 22
      vertex -8.5 15 12
    endloop
  endfacet
  facet normal 0 1 0
    outer loop
      vertex -8.5 15 12
      vertex -41.5 15 22
      vertex -8.5 15 22
    endloop
  endfacet
  facet normal 0 1 0
    outer loop
      vertex -33.75 15.9689 12
      vertex -33.75 15.9689 8
      vertex -37.25 15.9689 12
    endloop
  endfacet
  facet normal 0 1 -0
    outer loop
      vertex -37.25 15.9689 12
      vertex -33.75 15.9689 8
      vertex -37.25 15.9689 8
    endloop
  endfacet
  facet normal 0.866025 0.5 0
    outer loop
      vertex -39 19 12
      vertex -37.25 15.9689 12
      vertex -37.25 15.9689 8
    endloop
  endfacet
  facet normal 0.866025 0.5 0
    outer loop
      vertex -39 19 8
      vertex -39 19 12
      vertex -37.25 15.9689 8
    endloop
  endfacet
  facet normal -0.866025 0.5 0
    outer loop
      vertex -32 19 12
      vertex -32 19 8
      vertex -33.75 15.9689 12
    endloop
  endfacet
  facet normal -0.866025 0.5 0
    outer loop
      vertex -33.75 15.9689 12
      vertex -32 19 8
      vertex -33.75 15.9689 8
    endloop
  endfacet
  facet normal -0.866025 -0.5 0
    outer loop
      vertex -32 19 12
      vertex -33.75 22.0311 12
      vertex -32 19 8
    endloop
  endfacet
  facet normal -0.866025 -0.5 0
    outer loop
      vertex -32 19 8
      vertex -33.75 22.0311 12
      vertex -33.75 22.0311 8
    endloop
  endfacet
  facet normal 0 -1 0
    outer loop
      vertex -33.75 22.0311 8
      vertex -33.75 22.0311 12
      vertex -37.25 22.0311 12
    endloop
  endfacet
  facet normal -0 -1 -0
    outer loop
      vertex -37.25 22.0311 8
      vertex -33.75 22.0311 8
      vertex -37.25 22.0311 12
    endloop
  endfacet
  facet normal 0.866025 -0.5 0
    outer loop
      vertex -37.25 22.0311 8
      vertex -37.25 22.0311 12
      vertex -39 19 12
    endloop
  endfacet
  facet normal 0.866025 -0.5 0
    outer loop
      vertex -39 19 8
      vertex -37.25 22.0311 8
      vertex -39 19 12
    endloop
  endfacet
  facet normal 0.866025 0.5 0
    outer loop
      vertex -18 19 12
      vertex -16.25 15.9689 12
      vertex -16.25 15.9689 8
    endloop
  endfacet
  facet normal 0.866025 0.5 0
    outer loop
      vertex -18 19 8
      vertex -18 19 12
      vertex -16.25 15.9689 8
    endloop
  endfacet
  facet normal 0 1 0
    outer loop
      vertex -12.75 15.9689 12
      vertex -12.75 15.9689 8
      vertex -16.25 15.9689 12
    endloop
  endfacet
  facet normal 0 1 -0
    outer loop
      vertex -16.25 15.9689 12
      vertex -12.75 15.9689 8
      vertex -16.25 15.9689 8
    endloop
  endfacet
  facet normal -0.866025 0.5 0
    outer loop
      vertex -11 19 12
      vertex -11 19 8
      vertex -12.75 15.9689 12
    endloop
  endfacet
  facet normal -0.866025 0.5 0
    outer loop
      vertex -12.75 15.9689 12
      vertex -11 19 8
      vertex -12.75 15.9689 8
    endloop
  endfacet
  facet normal -0.866025 -0.5 0
    outer loop
      vertex -11 19 12
      vertex -12.75 22.0311 12
      vertex -11 19 8
    endloop
  endfacet
  facet normal -0.866025 -0.5 0
    outer loop
      vertex -11 19 8
      vertex -12.75 22.0311 12
      vertex -12.75 22.0311 8
    endloop
  endfacet
  facet normal 0 -1 0
    outer loop
      vertex -12.75 22.0311 8
      vertex -12.75 22.0311 12
      vertex -16.25 22.0311 12
    endloop
  endfacet
  facet normal -0 -1 -0
    outer loop
      vertex -16.25 22.0311 8
      vertex -12.75 22.0311 8
      vertex -16.25 22.0311 12
    endloop
  endfacet
  facet normal 0.866025 -0.5 0
    outer loop
      vertex -16.25 22.0311 8
      vertex -16.25 22.0311 12
      vertex -18 19 12
    endloop
  endfacet
  facet normal 0.866025 -0.5 0
    outer loop
      vertex -18 19 8
      vertex -16.25 22.0311 8
      vertex -18 19 12
    endloop
  endfacet
  facet normal 0 -0 1
    outer loop
      vertex -41.5 15 22
      vertex -41.5 11.5 22
      vertex -8.5 11.5 22
    endloop
  endfacet
  facet normal 0 0 1
    outer loop
      vertex -8.5 15 22
      vertex -41.5 15 22
      vertex -8.5 11.5 22
    endloop
  endfacet
  facet normal 0 -0.707107 0.707107
    outer loop
      vertex -8.5 10.5 21
      vertex -8.5 11.5 22
      vertex -41.5 11.5 22
    endloop
  endfacet
  facet normal 0 -0.707107 0.707107
    outer loop
      vertex -41.5 10.5 21
      vertex -8.5 10.5 21
      vertex -41.5 11.5 22
    endloop
  endfacet
  facet normal 0 -1 0
    outer loop
      vertex -8.5 10.5 8
      vertex -8.5 10.5 21
      vertex -41.5 10.5 21
    endloop
  endfacet
  facet normal -0 -1 -0
    outer loop
      vertex -41.5 10.5 8
      vertex -8.5 10.5 8
      vertex -41.5 10.5 21
    endloop
  endfacet
  facet normal 0 0 1
    outer loop
      vertex -8.5 10.5 8
      vertex -40.5 9.5 8
      vertex -39.5 9.5 8
    endloop
  endfacet
  facet normal -0 0 1
    outer loop
      vertex -38.5 9.5 8
      vertex -8.5 10.5 8
      vertex -39.5 9.5 8
    endloop
  endfacet
  facet normal 0 0 1
    outer loop
      vertex -40.5 7.5 8
      vertex -40.5 9.5 8
      vertex -41.5 10.5 8
    endloop
  endfacet
  facet normal 0 0 1
    outer loop
      vertex -39.5 7.5 8
      vertex -38.5 7.5 8
      vertex -39.5 9.5 8
    endloop
  endfacet
  facet normal 0 0 1
    outer loop
      vertex -38.5 7.5 8
      vertex -38.5 9.5 8
      vertex -39.5 9.5 8
    endloop
  endfacet
  facet normal -0 0 1
    outer loop
      vertex -37.5 9.5 8
      vertex -8.5 10.5 8
      vertex -38.5 9.5 8
    endloop
  endfacet
  facet normal -0 0 1
    outer loop
      vertex -36.5 9.5 8
      vertex -8.5 10.5 8
      vertex -37.5 9.5 8
    endloop
  endfacet
  facet normal 0 0 1
    outer loop
      vertex -37.5 7.5 8
      vertex -36.5 7.5 8
      vertex -37.5 9.5 8
    endloop
  endfacet
  facet normal 0 0 1
    outer loop
      vertex -36.5 7.5 8
      vertex -36.5 9.5 8
      vertex -37.5 9.5 8
    endloop
  endfacet
  facet normal -0 0 1
    outer loop
      vertex -35.5 9.5 8
      vertex -8.5 10.5 8
      vertex -36.5 9.5 8
    endloop
  endfacet
  facet normal -0 0 1
    outer loop
      vertex -34.5 9.5 8
      vertex -8.5 10.5 8
      vertex -35.5 9.5 8
    endloop
  endfacet
  facet normal 0 0 1
    outer loop
      vertex -35.5 7.5 8
      vertex -34.5 7.5 8
      vertex -35.5 9.5 8
    endloop
  endfacet
  facet normal 0 0 1
    outer loop
      vertex -34.5 7.5 8
      vertex -34.5 9.5 8
      vertex -35.5 9.5 8
    endloop
  endfacet
  facet normal -0 0 1
    outer loop
      vertex -33.5 9.5 8
      vertex -8.5 10.5 8
      vertex -34.5 9.5 8
    endloop
  endfacet
  facet normal -0 0 1
    outer loop
      vertex -32.5 9.5 8
      vertex -8.5 10.5 8
      vertex -33.5 9.5 8
    endloop
  endfacet
  facet normal 0 0 1
    outer loop
      vertex -33.5 7.5 8
      vertex -32.5 7.5 8
      vertex -33.5 9.5 8
    endloop
  endfacet
  facet normal 0 0 1
    outer loop
      vertex -32.5 7.5 8
      vertex -32.5 9.5 8
      vertex -33.5 9.5 8
    endloop
  endfacet
  facet normal -0 0 1
    outer loop
      vertex -31.5 9.5 8
      vertex -8.5 10.5 8
      vertex -32.5 9.5 8
    endloop
  endfacet
  facet normal -0 0 1
    outer loop
      vertex -30.5 9.5 8
      vertex -8.5 10.5 8
      vertex -31.5 9.5 8
    endloop
  endfacet
  facet normal 0 0 1
    outer loop
      vertex -31.5 7.5 8
      vertex -30.5 7.5 8
      vertex -31.5 9.5 8
    endloop
  endfacet
  facet normal 0 0 1
    outer loop
      vertex -30.5 7.5 8
      vertex -30.5 9.5 8
      vertex -31.5 9.5 8
    endloop
  endfacet
  facet normal -0 0 1
    outer loop
      vertex -29.5 9.5 8
      vertex -8.5 10.5 8
      vertex -30.5 9.5 8
    endloop
  endfacet
  facet normal -0 0 1
    outer loop
      vertex -28.5 9.5 8
      vertex -8.5 10.5 8
      vertex -29.5 9.5 8
    endloop
  endfacet
  facet normal 0 0 1
    outer loop
      vertex -29.5 7.5 8
      vertex -28.5 7.5 8
      vertex -29.5 9.5 8
    endloop
  endfacet
  facet normal 0 0 1
    outer loop
      vertex -28.5 7.5 8
      vertex -28.5 9.5 8
      vertex -29.5 9.5 8
    endloop
  endfacet
  facet normal -0 0 1
    outer loop
      vertex -27.5 9.5 8
      vertex -8.5 10.5 8
      vertex -28.5 9.5 8
    endloop
  endfacet
  facet normal 0 0 1
    outer loop
      vertex -27 7.5 8
      vertex -23 0 8
      vertex -27.5 9.5 8
    endloop
  endfacet
  facet normal 0 0 1
    outer loop
      vertex -27.5 7.5 8
      vertex -27 7.5 8
      vertex -27.5 9.5 8
    endloop
  endfacet
  facet normal 0 0 1
    outer loop
      vertex -23 7.5 8
      vertex -22.5 7.5 8
      vertex -27.5 9.5 8
    endloop
  endfacet
  facet normal 0 0 1
    outer loop
      vertex -27 0 8
      vertex -23 0 8
      vertex -27 7.5 8
    endloop
  endfacet
  facet normal 0 0 1
    outer loop
      vertex -23 0 8
      vertex -23 7.5 8
      vertex -27.5 9.5 8
    endloop
  endfacet
  facet normal -0 0 1
    outer loop
      vertex -22.5 9.5 8
      vertex -8.5 10.5 8
      vertex -27.5 9.5 8
    endloop
  endfacet
  facet normal 0 0 1
    outer loop
      vertex -21.5 7.5 8
      vertex -20.5 7.5 8
      vertex -21.5 9.5 8
    endloop
  endfacet
  facet normal 0 0 1
    outer loop
      vertex -22.5 7.5 8
      vertex -22.5 9.5 8
      vertex -27.5 9.5 8
    endloop
  endfacet
  facet normal -0 0 1
    outer loop
      vertex -21.5 9.5 8
      vertex -8.5 10.5 8
      vertex -22.5 9.5 8
    endloop
  endfacet
  facet normal -0 0 1
    outer loop
      vertex -20.5 9.5 8
      vertex -8.5 10.5 8
      vertex -21.5 9.5 8
    endloop
  endfacet
  facet normal 0 0 1
    outer loop
      vertex -19.5 7.5 8
      vertex -18.5 7.5 8
      vertex -19.5 9.5 8
    endloop
  endfacet
  facet normal 0 0 1
    outer loop
      vertex -20.5 7.5 8
      vertex -20.5 9.5 8
      vertex -21.5 9.5 8
    endloop
  endfacet
  facet normal -0 0 1
    outer loop
      vertex -19.5 9.5 8
      vertex -8.5 10.5 8
      vertex -20.5 9.5 8
    endloop
  endfacet
  facet normal -0 0 1
    outer loop
      vertex -18.5 9.5 8
      vertex -8.5 10.5 8
      vertex -19.5 9.5 8
    endloop
  endfacet
  facet normal 0 0 1
    outer loop
      vertex -18.5 7.5 8
      vertex -18.5 9.5 8
      vertex -19.5 9.5 8
    endloop
  endfacet
  facet normal -0 0 1
    outer loop
      vertex -17.5 9.5 8
      vertex -8.5 10.5 8
      vertex -18.5 9.5 8
    endloop
  endfacet
  facet normal -0 0 1
    outer loop
      vertex -16.5 9.5 8
      vertex -8.5 10.5 8
      vertex -17.5 9.5 8
    endloop
  endfacet
  facet normal 0 0 1
    outer loop
      vertex -17.5 7.5 8
      vertex -16.5 7.5 8
      vertex -17.5 9.5 8
    endloop
  endfacet
  facet normal 0 0 1
    outer loop
      vertex -16.5 7.5 8
      vertex -16.5 9.5 8
      vertex -17.5 9.5 8
    endloop
  endfacet
  facet normal -0 0 1
    outer loop
      vertex -15.5 9.5 8
      vertex -8.5 10.5 8
      vertex -16.5 9.5 8
    endloop
  endfacet
  facet normal -0 0 1
    outer loop
      vertex -14.5 9.5 8
      vertex -8.5 10.5 8
      vertex -15.5 9.5 8
    endloop
  endfacet
  facet normal 0 0 1
    outer loop
      vertex -15.5 7.5 8
      vertex -14.5 7.5 8
      vertex -15.5 9.5 8
    endloop
  endfacet
  facet normal 0 0 1
    outer loop
      vertex -14.5 7.5 8
      vertex -14.5 9.5 8
      vertex -15.5 9.5 8
    endloop
  endfacet
  facet normal -0 0 1
    outer loop
      vertex -13.5 9.5 8
      vertex -8.5 10.5 8
      vertex -14.5 9.5 8
    endloop
  endfacet
  facet normal -0 0 1
    outer loop
      vertex -12.5 9.5 8
      vertex -8.5 10.5 8
      vertex -13.5 9.5 8
    endloop
  endfacet
  facet normal 0 0 1
    outer loop
      vertex -13.5 7.5 8
      vertex -12.5 7.5 8
      vertex -13.5 9.5 8
    endloop
  endfacet
  facet normal 0 0 1
    outer loop
      vertex -12.5 7.5 8
      vertex -12.5 9.5 8
      vertex -13.5 9.5 8
    endloop
  endfacet
  facet normal -0 0 1
    outer loop
      vertex -11.5 9.5 8
      vertex -8.5 10.5 8
      vertex -12.5 9.5 8
    endloop
  endfacet
  facet normal -0 0 1
    outer loop
      vertex -10.5 9.5 8
      vertex -8.5 10.5 8
      vertex -11.5 9.5 8
    endloop
  endfacet
  facet normal 0 0 1
    outer loop
      vertex -11.5 7.5 8
      vertex -10.5 7.5 8
      vertex -11.5 9.5 8
    endloop
  endfacet
  facet normal 0 0 1
    outer loop
      vertex -10.5 7.5 8
      vertex -10.5 9.5 8
      vertex -11.5 9.5 8
    endloop
  endfacet
  facet normal -0 0 1
    outer loop
      vertex -9.5 9.5 8
      vertex -8.5 10.5 8
      vertex -10.5 9.5 8
    endloop
  endfacet
  facet normal 0 0 1
    outer loop
      vertex -9.5 7.5 8
      vertex -8.5 7.5 8
      vertex -9.5 9.5 8
    endloop
  endfacet
  facet normal 0 0 1
    outer loop
      vertex -8.5 7.5 8
      vertex -8.5 10.5 8
      vertex -9.5 9.5 8
    endloop
  endfacet
  facet normal 0 0 1
    outer loop
      vertex -8.5 10.5 8
      vertex -41.5 10.5 8
      vertex -40.5 9.5 8
    endloop
  endfacet
  facet normal 0 -0 1
    outer loop
      vertex -41.5 10.5 8
      vertex -41.5 7.5 8
      vertex -40.5 7.5 8
    endloop
  endfacet
  facet normal 0 1 0
    outer loop
      vertex -40.5 7.5 22
      vertex -40.5 7.5 8
      vertex -41.5 7.5 22
    endloop
  endfacet
  facet normal 0 1 -0
    outer loop
      vertex -41.5 7.5 22
      vertex -40.5 7.5 8
      vertex -41.5 7.5 8
    endloop
  endfacet
  facet normal -0 5.68434e-16 1.42109e-16
    outer loop
      vertex -29.5 7.5 22
      vertex -30.5 7.5 22
      vertex -27 7.5 22
    endloop
  endfacet
  facet normal 0 1.57898e-15 3.94746e-16
    outer loop
      vertex -28.5 7.5 22
      vertex -27 7.5 22
      vertex -27.5 7.5 22
    endloop
  endfacet
  facet normal -0 0.707107 0.707107
    outer loop
      vertex -27.5 9.5 20
      vertex -28.5 9.5 20
      vertex -27.5 7.5 22
    endloop
  endfacet
  facet normal 0 0.707107 0.707107
    outer loop
      vertex -28.5 9.5 20
      vertex -28.5 7.5 22
      vertex -27.5 7.5 22
    endloop
  endfacet
  facet normal -0 1.75443e-16 4.38607e-17
    outer loop
      vertex -31.5 7.5 22
      vertex -32.5 7.5 22
      vertex -27 7.5 22
    endloop
  endfacet
  facet normal -0 1.57898e-15 3.94746e-16
    outer loop
      vertex -28.5 7.5 22
      vertex -29.5 7.5 22
      vertex -27 7.5 22
    endloop
  endfacet
  facet normal -0 0.707107 0.707107
    outer loop
      vertex -29.5 9.5 20
      vertex -30.5 9.5 20
      vertex -29.5 7.5 22
    endloop
  endfacet
  facet normal 0 0.707107 0.707107
    outer loop
      vertex -30.5 9.5 20
      vertex -30.5 7.5 22
      vertex -29.5 7.5 22
    endloop
  endfacet
  facet normal -0 8.40879e-17 2.1022e-17
    outer loop
      vertex -33.5 7.5 22
      vertex -34.5 7.5 22
      vertex -27 7.5 22
    endloop
  endfacet
  facet normal -0 2.90017e-16 7.25044e-17
    outer loop
      vertex -30.5 7.5 22
      vertex -31.5 7.5 22
      vertex -27 7.5 22
    endloop
  endfacet
  facet normal -0 0.707107 0.707107
    outer loop
      vertex -31.5 9.5 20
      vertex -32.5 9.5 20
      vertex -31.5 7.5 22
    endloop
  endfacet
  facet normal 0 0.707107 0.707107
    outer loop
      vertex -32.5 9.5 20
      vertex -32.5 7.5 22
      vertex -31.5 7.5 22
    endloop
  endfacet
  facet normal -0 4.91725e-17 1.22931e-17
    outer loop
      vertex -35.5 7.5 22
      vertex -36.5 7.5 22
      vertex -27 7.5 22
    endloop
  endfacet
  facet normal -0 1.17445e-16 2.93613e-17
    outer loop
      vertex -32.5 7.5 22
      vertex -33.5 7.5 22
      vertex -27 7.5 22
    endloop
  endfacet
  facet normal -0 0.707107 0.707107
    outer loop
      vertex -33.5 9.5 20
      vertex -34.5 9.5 20
      vertex -33.5 7.5 22
    endloop
  endfacet
  facet normal 0 0.707107 0.707107
    outer loop
      vertex -34.5 9.5 20
      vertex -34.5 7.5 22
      vertex -33.5 7.5 22
    endloop
  endfacet
  facet normal -0 3.22242e-17 8.05604e-18
    outer loop
      vertex -37.5 7.5 22
      vertex -38.5 7.5 22
      vertex -27 7.5 22
    endloop
  endfacet
  facet normal -0 6.31594e-17 1.57898e-17
    outer loop
      vertex -34.5 7.5 22
      vertex -35.5 7.5 22
      vertex -27 7.5 22
    endloop
  endfacet
  facet normal -0 0.707107 0.707107
    outer loop
      vertex -35.5 9.5 20
      vertex -36.5 9.5 20
      vertex -35.5 7.5 22
    endloop
  endfacet
  facet normal 0 0.707107 0.707107
    outer loop
      vertex -36.5 9.5 20
      vertex -36.5 7.5 22
      vertex -35.5 7.5 22
    endloop
  endfacet
  facet normal -0 2.27374e-17 5.68434e-18
    outer loop
      vertex -39.5 7.5 22
      vertex -40.5 7.5 22
      vertex -27 7.5 22
    endloop
  endfacet
  facet normal -0 3.93652e-17 9.84131e-18
    outer loop
      vertex -36.5 7.5 22
      vertex -37.5 7.5 22
      vertex -27 7.5 22
    endloop
  endfacet
  facet normal -0 0.707107 0.707107
    outer loop
      vertex -37.5 9.5 20
      vertex -38.5 9.5 20
      vertex -37.5 7.5 22
    endloop
  endfacet
  facet normal 0 0.707107 0.707107
    outer loop
      vertex -38.5 9.5 20
      vertex -38.5 7.5 22
      vertex -37.5 7.5 22
    endloop
  endfacet
  facet normal -0 2.68636e-17 6.7159e-18
    outer loop
      vertex -38.5 7.5 22
      vertex -39.5 7.5 22
      vertex -27 7.5 22
    endloop
  endfacet
  facet normal -0 0.707107 0.707107
    outer loop
      vertex -39.5 9.5 20
      vertex -40.5 9.5 20
      vertex -39.5 7.5 22
    endloop
  endfacet
  facet normal 0 0.707107 0.707107
    outer loop
      vertex -40.5 9.5 20
      vertex -40.5 7.5 22
      vertex -39.5 7.5 22
    endloop
  endfacet
  facet normal -0 1.94936e-17 4.87341e-18
    outer loop
      vertex -40.5 7.5 22
      vertex -41.5 7.5 22
      vertex -27 7.5 22
    endloop
  endfacet
  facet normal 0 -0 1
    outer loop
      vertex -41.5 7.5 22
      vertex -41.5 0 22
      vertex -27 0 22
    endloop
  endfacet
  facet normal 0 0 1
    outer loop
      vertex -27 7.5 22
      vertex -41.5 7.5 22
      vertex -27 0 22
    endloop
  endfacet
  facet normal 1 0 0
    outer loop
      vertex -27 0 8
      vertex -27 7.5 8
      vertex -27 0 22
    endloop
  endfacet
  facet normal 1 0 0
    outer loop
      vertex -27 0 22
      vertex -27 7.5 8
      vertex -27 7.5 22
    endloop
  endfacet
  facet normal -1 0 0
    outer loop
      vertex -23 0 22
      vertex -23 7.5 22
      vertex -23 7.5 8
    endloop
  endfacet
  facet normal -1 0 0
    outer loop
      vertex -23 0 22
      vertex -23 7.5 8
      vertex -23 0 8
    endloop
  endfacet
  facet normal 0 -0 1
    outer loop
      vertex -23 7.5 22
      vertex -23 0 22
      vertex -8.5 0 22
    endloop
  endfacet
  facet normal 0 0 1
    outer loop
      vertex -8.5 7.5 22
      vertex -23 7.5 22
      vertex -8.5 0 22
    endloop
  endfacet
  facet normal -0 3.94746e-16 9.86865e-17
    outer loop
      vertex -11.5 7.5 22
      vertex -12.5 7.5 22
      vertex -8.5 7.5 22
    endloop
  endfacet
  facet normal 0 8.88178e-16 2.22045e-16
    outer loop
      vertex -10.5 7.5 22
      vertex -8.5 7.5 22
      vertex -9.5 7.5 22
    endloop
  endfacet
  facet normal -0 0.707107 0.707107
    outer loop
      vertex -9.5 9.5 20
      vertex -10.5 9.5 20
      vertex -9.5 7.5 22
    endloop
  endfacet
  facet normal 0 0.707107 0.707107
    outer loop
      vertex -10.5 9.5 20
      vertex -10.5 7.5 22
      vertex -9.5 7.5 22
    endloop
  endfacet
  facet normal -0 1.42109e-16 3.55271e-17
    outer loop
      vertex -13.5 7.5 22
      vertex -14.5 7.5 22
      vertex -8.5 7.5 22
    endloop
  endfacet
  facet normal -0 8.88178e-16 2.22045e-16
    outer loop
      vertex -10.5 7.5 22
      vertex -11.5 7.5 22
      vertex -8.5 7.5 22
    endloop
  endfacet
  facet normal -0 0.707107 0.707107
    outer loop
      vertex -11.5 9.5 20
      vertex -12.5 9.5 20
      vertex -11.5 7.5 22
    endloop
  endfacet
  facet normal 0 0.707107 0.707107
    outer loop
      vertex -12.5 9.5 20
      vertex -12.5 7.5 22
      vertex -11.5 7.5 22
    endloop
  endfacet
  facet normal -0 7.25044e-17 1.81261e-17
    outer loop
      vertex -15.5 7.5 22
      vertex -16.5 7.5 22
      vertex -8.5 7.5 22
    endloop
  endfacet
  facet normal -0 2.22045e-16 5.55112e-17
    outer loop
      vertex -12.5 7.5 22
      vertex -13.5 7.5 22
      vertex -8.5 7.5 22
    endloop
  endfacet
  facet normal -0 0.707107 0.707107
    outer loop
      vertex -13.5 9.5 20
      vertex -14.5 9.5 20
      vertex -13.5 7.5 22
    endloop
  endfacet
  facet normal 0 0.707107 0.707107
    outer loop
      vertex -14.5 9.5 20
      vertex -14.5 7.5 22
      vertex -13.5 7.5 22
    endloop
  endfacet
  facet normal -0 4.38607e-17 1.09652e-17
    outer loop
      vertex -17.5 7.5 22
      vertex -18.5 7.5 22
      vertex -8.5 7.5 22
    endloop
  endfacet
  facet normal -0 9.86865e-17 2.46716e-17
    outer loop
      vertex -14.5 7.5 22
      vertex -15.5 7.5 22
      vertex -8.5 7.5 22
    endloop
  endfacet
  facet normal -0 0.707107 0.707107
    outer loop
      vertex -15.5 9.5 20
      vertex -16.5 9.5 20
      vertex -15.5 7.5 22
    endloop
  endfacet
  facet normal 0 0.707107 0.707107
    outer loop
      vertex -16.5 9.5 20
      vertex -16.5 7.5 22
      vertex -15.5 7.5 22
    endloop
  endfacet
  facet normal -0 2.93613e-17 7.34032e-18
    outer loop
      vertex -19.5 7.5 22
      vertex -20.5 7.5 22
      vertex -8.5 7.5 22
    endloop
  endfacet
  facet normal -0 5.55112e-17 1.38778e-17
    outer loop
      vertex -16.5 7.5 22
      vertex -17.5 7.5 22
      vertex -8.5 7.5 22
    endloop
  endfacet
  facet normal -0 0.707107 0.707107
    outer loop
      vertex -17.5 9.5 20
      vertex -18.5 9.5 20
      vertex -17.5 7.5 22
    endloop
  endfacet
  facet normal 0 0.707107 0.707107
    outer loop
      vertex -18.5 9.5 20
      vertex -18.5 7.5 22
      vertex -17.5 7.5 22
    endloop
  endfacet
  facet normal -0 2.1022e-17 5.25549e-18
    outer loop
      vertex -21.5 7.5 22
      vertex -22.5 7.5 22
      vertex -8.5 7.5 22
    endloop
  endfacet
  facet normal -0 3.55271e-17 8.88178e-18
    outer loop
      vertex -18.5 7.5 22
      vertex -19.5 7.5 22
      vertex -8.5 7.5 22
    endloop
  endfacet
  facet normal -0 0.707107 0.707107
    outer loop
      vertex -19.5 9.5 20
      vertex -20.5 9.5 20
      vertex -19.5 7.5 22
    endloop
  endfacet
  facet normal 0 0.707107 0.707107
    outer loop
      vertex -20.5 9.5 20
      vertex -20.5 7.5 22
      vertex -19.5 7.5 22
    endloop
  endfacet
  facet normal -0 2.46716e-17 6.16791e-18
    outer loop
      vertex -20.5 7.5 22
      vertex -21.5 7.5 22
      vertex -8.5 7.5 22
    endloop
  endfacet
  facet normal -0 0.707107 0.707107
    outer loop
      vertex -21.5 9.5 20
      vertex -22.5 9.5 20
      vertex -21.5 7.5 22
    endloop
  endfacet
  facet normal 0 0.707107 0.707107
    outer loop
      vertex -22.5 9.5 20
      vertex -22.5 7.5 22
      vertex -21.5 7.5 22
    endloop
  endfacet
  facet normal -0 9.06305e-18 2.26576e-18
    outer loop
      vertex -22.5 7.5 22
      vertex -23 7.5 22
      vertex -8.5 7.5 22
    endloop
  endfacet
  facet normal 0 1 0
    outer loop
      vertex -8.5 7.5 22
      vertex -8.5 7.5 8
      vertex -9.5 7.5 22
    endloop
  endfacet
  facet normal 0 1 -0
    outer loop
      vertex -9.5 7.5 22
      vertex -8.5 7.5 8
      vertex -9.5 7.5 8
    endloop
  endfacet
  facet normal 0 0 1
    outer loop
      vertex -34.9438 17.2881 8
      vertex -33.75 15.9689 8
      vertex -32 19 8
    endloop
  endfacet
  facet normal 0 -0 1
    outer loop
      vertex -34.0438 17.942 8
      vertex -34.9438 17.2881 8
      vertex -32 19 8
    endloop
  endfacet
  facet normal 0 0 1
    outer loop
      vertex -39 19 8
      vertex -37.3 19 8
      vertex -37.25 22.0311 8
    endloop
  endfacet
  facet normal 0 0 1
    outer loop
      vertex -39 19 8
      vertex -37.25 15.9689 8
      vertex -37.3 19 8
    endloop
  endfacet
  facet normal 0 0 1
    outer loop
      vertex -34.9438 20.7119 8
      vertex -34.0438 20.058 8
      vertex -33.75 22.0311 8
    endloop
  endfacet
  facet normal 0 0 1
    outer loop
      vertex -36.0562 20.7119 8
      vertex -34.9438 20.7119 8
      vertex -33.75 22.0311 8
    endloop
  endfacet
  facet normal 0 0 1
    outer loop
      vertex -37.25 22.0311 8
      vertex -36.0562 20.7119 8
      vertex -33.75 22.0311 8
    endloop
  endfacet
  facet normal 0 0 1
    outer loop
      vertex -37.25 22.0311 8
      vertex -36.9562 20.058 8
      vertex -36.0562 20.7119 8
    endloop
  endfacet
  facet normal 0 -0 1
    outer loop
      vertex -33.75 22.0311 8
      vertex -34.0438 20.058 8
      vertex -32 19 8
    endloop
  endfacet
  facet normal -0 0 1
    outer loop
      vertex -36.0562 17.2881 8
      vertex -36.9562 17.942 8
      vertex -37.25 15.9689 8
    endloop
  endfacet
  facet normal 0 0 1
    outer loop
      vertex -34.0438 20.058 8
      vertex -33.7 19 8
      vertex -32 19 8
    endloop
  endfacet
  facet normal 0 -0 1
    outer loop
      vertex -33.7 19 8
      vertex -34.0438 17.942 8
      vertex -32 19 8
    endloop
  endfacet
  facet normal 0 0 1
    outer loop
      vertex -37.25 15.9689 8
      vertex -33.75 15.9689 8
      vertex -34.9438 17.2881 8
    endloop
  endfacet
  facet normal 0 0 1
    outer loop
      vertex -34.9438 17.2881 8
      vertex -36.0562 17.2881 8
      vertex -37.25 15.9689 8
    endloop
  endfacet
  facet normal 0 0 1
    outer loop
      vertex -37.3 19 8
      vertex -36.9562 20.058 8
      vertex -37.25 22.0311 8
    endloop
  endfacet
  facet normal -0 0 1
    outer loop
      vertex -36.9562 17.942 8
      vertex -37.3 19 8
      vertex -37.25 15.9689 8
    endloop
  endfacet
  facet normal 0 0 1
    outer loop
      vertex -13.9438 17.2881 8
      vertex -12.75 15.9689 8
      vertex -11 19 8
    endloop
  endfacet
  facet normal 0 -0 1
    outer loop
      vertex -13.0438 17.942 8
      vertex -13.9438 17.2881 8
      vertex -11 19 8
    endloop
  endfacet
  facet normal 0 0 1
    outer loop
      vertex -18 19 8
      vertex -16.3 19 8
      vertex -16.25 22.0311 8
    endloop
  endfacet
  facet normal 0 0 1
    outer loop
      vertex -18 19 8
      vertex -16.25 15.9689 8
      vertex -16.3 19 8
    endloop
  endfacet
  facet normal 0 0 1
    outer loop
      vertex -13.9438 20.7119 8
      vertex -13.0438 20.058 8
      vertex -12.75 22.0311 8
    endloop
  endfacet
  facet normal 0 0 1
    outer loop
      vertex -15.0562 20.7119 8
      vertex -13.9438 20.7119 8
      vertex -12.75 22.0311 8
    endloop
  endfacet
  facet normal 0 0 1
    outer loop
      vertex -16.25 22.0311 8
      vertex -15.0562 20.7119 8
      vertex -12.75 22.0311 8
    endloop
  endfacet
  facet normal 0 0 1
    outer loop
      vertex -16.25 22.0311 8
      vertex -15.9562 20.058 8
      vertex -15.0562 20.7119 8
    endloop
  endfacet
  facet normal 0 -0 1
    outer loop
      vertex -12.75 22.0311 8
      vertex -13.0438 20.058 8
      vertex -11 19 8
    endloop
  endfacet
  facet normal -0 0 1
    outer loop
      vertex -15.0562 17.2881 8
      vertex -15.9562 17.942 8
      vertex -16.25 15.9689 8
    endloop
  endfacet
  facet normal 0 0 1
    outer loop
      vertex -13.0438 20.058 8
      vertex -12.7 19 8
      vertex -11 19 8
    endloop
  endfacet
  facet normal 0 -0 1
    outer loop
      vertex -12.7 19 8
      vertex -13.0438 17.942 8
      vertex -11 19 8
    endloop
  endfacet
  facet normal 0 0 1
    outer loop
      vertex -16.25 15.9689 8
      vertex -12.75 15.9689 8
      vertex -13.9438 17.2881 8
    endloop
  endfacet
  facet normal 0 0 1
    outer loop
      vertex -13.9438 17.2881 8
      vertex -15.0562 17.2881 8
      vertex -16.25 15.9689 8
    endloop
  endfacet
  facet normal 0 0 1
    outer loop
      vertex -16.3 19 8
      vertex -15.9562 20.058 8
      vertex -16.25 22.0311 8
    endloop
  endfacet
  facet normal -0 0 1
    outer loop
      vertex -15.9562 17.942 8
      vertex -16.3 19 8
      vertex -16.25 15.9689 8
    endloop
  endfacet
  facet normal -1 0 0
    outer loop
      vertex -40.5 9.5 20
      vertex -40.5 9.5 8
      vertex -40.5 7.5 22
    endloop
  endfacet
  facet normal -1 0 0
    outer loop
      vertex -40.5 7.5 22
      vertex -40.5 9.5 8
      vertex -40.5 7.5 8
    endloop
  endfacet
  facet normal 1 0 0
    outer loop
      vertex -9.5 9.5 8
      vertex -9.5 9.5 20
      vertex -9.5 7.5 22
    endloop
  endfacet
  facet normal 1 0 0
    outer loop
      vertex -9.5 7.5 8
      vertex -9.5 9.5 8
      vertex -9.5 7.5 22
    endloop
  endfacet
  facet normal 0 1 0
    outer loop
      vertex -9.5 9.5 20
      vertex -9.5 9.5 8
      vertex -10.5 9.5 20
    endloop
  endfacet
  facet normal 0 1 -0
    outer loop
      vertex -10.5 9.5 20
      vertex -9.5 9.5 8
      vertex -10.5 9.5 8
    endloop
  endfacet
  facet normal -1 0 0
    outer loop
      vertex -10.5 9.5 20
      vertex -10.5 9.5 8
      vertex -10.5 7.5 22
    endloop
  endfacet
  facet normal -1 0 0
    outer loop
      vertex -10.5 7.5 22
      vertex -10.5 9.5 8
      vertex -10.5 7.5 8
    endloop
  endfacet
  facet normal 0 1 0
    outer loop
      vertex -10.5 7.5 22
      vertex -10.5 7.5 8
      vertex -11.5 7.5 22
    endloop
  endfacet
  facet normal 0 1 -0
    outer loop
      vertex -11.5 7.5 22
      vertex -10.5 7.5 8
      vertex -11.5 7.5 8
    endloop
  endfacet
  facet normal 1 0 0
    outer loop
      vertex -11.5 9.5 8
      vertex -11.5 9.5 20
      vertex -11.5 7.5 22
    endloop
  endfacet
  facet normal 1 0 0
    outer loop
      vertex -11.5 7.5 8
      vertex -11.5 9.5 8
      vertex -11.5 7.5 22
    endloop
  endfacet
  facet normal 0 1 0
    outer loop
      vertex -11.5 9.5 20
      vertex -11.5 9.5 8
      vertex -12.5 9.5 20
    endloop
  endfacet
  facet normal 0 1 -0
    outer loop
      vertex -12.5 9.5 20
      vertex -11.5 9.5 8
      vertex -12.5 9.5 8
    endloop
  endfacet
  facet normal -1 0 0
    outer loop
      vertex -12.5 9.5 20
      vertex -12.5 9.5 8
      vertex -12.5 7.5 22
    endloop
  endfacet
  facet normal -1 0 0
    outer loop
      vertex -12.5 7.5 22
      vertex -12.5 9.5 8
      vertex -12.5 7.5 8
    endloop
  endfacet
  facet normal 0 1 0
    outer loop
      vertex -12.5 7.5 22
      vertex -12.5 7.5 8
      vertex -13.5 7.5 22
    endloop
  endfacet
  facet normal 0 1 -0
    outer loop
      vertex -13.5 7.5 22
      vertex -12.5 7.5 8
      vertex -13.5 7.5 8
    endloop
  endfacet
  facet normal 1 0 0
    outer loop
      vertex -13.5 9.5 8
      vertex -13.5 9.5 20
      vertex -13.5 7.5 22
    endloop
  endfacet
  facet normal 1 0 0
    outer loop
      vertex -13.5 7.5 8
      vertex -13.5 9.5 8
      vertex -13.5 7.5 22
    endloop
  endfacet
  facet normal 0 1 0
    outer loop
      vertex -13.5 9.5 20
      vertex -13.5 9.5 8
      vertex -14.5 9.5 20
    endloop
  endfacet
  facet normal 0 1 -0
    outer loop
      vertex -14.5 9.5 20
      vertex -13.5 9.5 8
      vertex -14.5 9.5 8
    endloop
  endfacet
  facet normal -1 0 0
    outer loop
      vertex -14.5 9.5 20
      vertex -14.5 9.5 8
      vertex -14.5 7.5 22
    endloop
  endfacet
  facet normal -1 0 0
    outer loop
      vertex -14.5 7.5 22
      vertex -14.5 9.5 8
      vertex -14.5 7.5 8
    endloop
  endfacet
  facet normal 0 1 0
    outer loop
      vertex -14.5 7.5 22
      vertex -14.5 7.5 8
      vertex -15.5 7.5 22
    endloop
  endfacet
  facet normal 0 1 -0
    outer loop
      vertex -15.5 7.5 22
      vertex -14.5 7.5 8
      vertex -15.5 7.5 8
    endloop
  endfacet
  facet normal 1 0 0
    outer loop
      vertex -15.5 9.5 8
      vertex -15.5 9.5 20
      vertex -15.5 7.5 22
    endloop
  endfacet
  facet normal 1 0 0
    outer loop
      vertex -15.5 7.5 8
      vertex -15.5 9.5 8
      vertex -15.5 7.5 22
    endloop
  endfacet
  facet normal 0 1 0
    outer loop
      vertex -15.5 9.5 20
      vertex -15.5 9.5 8
      vertex -16.5 9.5 20
    endloop
  endfacet
  facet normal 0 1 -0
    outer loop
      vertex -16.5 9.5 20
      vertex -15.5 9.5 8
      vertex -16.5 9.5 8
    endloop
  endfacet
  facet normal -1 0 0
    outer loop
      vertex -16.5 9.5 20
      vertex -16.5 9.5 8
      vertex -16.5 7.5 22
    endloop
  endfacet
  facet normal -1 0 0
    outer loop
      vertex -16.5 7.5 22
      vertex -16.5 9.5 8
      vertex -16.5 7.5 8
    endloop
  endfacet
  facet normal 0 1 0
    outer loop
      vertex -16.5 7.5 22
      vertex -16.5 7.5 8
      vertex -17.5 7.5 22
    endloop
  endfacet
  facet normal 0 1 -0
    outer loop
      vertex -17.5 7.5 22
      vertex -16.5 7.5 8
      vertex -17.5 7.5 8
    endloop
  endfacet
  facet normal 1 0 0
    outer loop
      vertex -17.5 9.5 8
      vertex -17.5 9.5 20
      vertex -17.5 7.5 22
    endloop
  endfacet
  facet normal 1 0 0
    outer loop
      vertex -17.5 7.5 8
      vertex -17.5 9.5 8
      vertex -17.5 7.5 22
    endloop
  endfacet
  facet normal 0 1 0
    outer loop
      vertex -17.5 9.5 20
      vertex -17.5 9.5 8
      vertex -18.5 9.5 20
    endloop
  endfacet
  facet normal 0 1 -0
    outer loop
      vertex -18.5 9.5 20
      vertex -17.5 9.5 8
      vertex -18.5 9.5 8
    endloop
  endfacet
  facet normal -1 0 0
    outer loop
      vertex -18.5 9.5 20
      vertex -18.5 9.5 8
      vertex -18.5 7.5 22
    endloop
  endfacet
  facet normal -1 0 0
    outer loop
      vertex -18.5 7.5 22
      vertex -18.5 9.5 8
      vertex -18.5 7.5 8
    endloop
  endfacet
  facet normal 0 1 0
    outer loop
      vertex -18.5 7.5 22
      vertex -18.5 7.5 8
      vertex -19.5 7.5 22
    endloop
  endfacet
  facet normal 0 1 -0
    outer loop
      vertex -19.5 7.5 22
      vertex -18.5 7.5 8
      vertex -19.5 7.5 8
    endloop
  endfacet
  facet normal 1 0 0
    outer loop
      vertex -19.5 9.5 8
      vertex -19.5 9.5 20
      vertex -19.5 7.5 22
    endloop
  endfacet
  facet normal 1 0 0
    outer loop
      vertex -19.5 7.5 8
      vertex -19.5 9.5 8
      vertex -19.5 7.5 22
    endloop
  endfacet
  facet normal 0 1 0
    outer loop
      vertex -19.5 9.5 20
      vertex -19.5 9.5 8
      vertex -20.5 9.5 20
    endloop
  endfacet
  facet normal 0 1 -0
    outer loop
      vertex -20.5 9.5 20
      vertex -19.5 9.5 8
      vertex -20.5 9.5 8
    endloop
  endfacet
  facet normal -1 0 0
    outer loop
      vertex -20.5 9.5 20
      vertex -20.5 9.5 8
      vertex -20.5 7.5 22
    endloop
  endfacet
  facet normal -1 0 0
    outer loop
      vertex -20.5 7.5 22
      vertex -20.5 9.5 8
      vertex -20.5 7.5 8
    endloop
  endfacet
  facet normal 0 1 0
    outer loop
      vertex -20.5 7.5 22
      vertex -20.5 7.5 8
      vertex -21.5 7.5 22
    endloop
  endfacet
  facet normal 0 1 -0
    outer loop
      vertex -21.5 7.5 22
      vertex -20.5 7.5 8
      vertex -21.5 7.5 8
    endloop
  endfacet
  facet normal 1 0 0
    outer loop
      vertex -21.5 9.5 8
      vertex -21.5 9.5 20
      vertex -21.5 7.5 22
    endloop
  endfacet
  facet normal 1 0 0
    outer loop
      vertex -21.5 7.5 8
      vertex -21.5 9.5 8
      vertex -21.5 7.5 22
    endloop
  endfacet
  facet normal 0 1 0
    outer loop
      vertex -21.5 9.5 20
      vertex -21.5 9.5 8
      vertex -22.5 9.5 20
    endloop
  endfacet
  facet normal 0 1 -0
    outer loop
      vertex -22.5 9.5 20
      vertex -21.5 9.5 8
      vertex -22.5 9.5 8
    endloop
  endfacet
  facet normal -1 0 0
    outer loop
      vertex -22.5 9.5 20
      vertex -22.5 9.5 8
      vertex -22.5 7.5 22
    endloop
  endfacet
  facet normal -1 0 0
    outer loop
      vertex -22.5 7.5 22
      vertex -22.5 9.5 8
      vertex -22.5 7.5 8
    endloop
  endfacet
  facet normal 0 1 0
    outer loop
      vertex -22.5 7.5 22
      vertex -22.5 7.5 8
      vertex -23 7.5 22
    endloop
  endfacet
  facet normal 0 1 -0
    outer loop
      vertex -23 7.5 22
      vertex -22.5 7.5 8
      vertex -23 7.5 8
    endloop
  endfacet
  facet normal 0 1 0
    outer loop
      vertex -27 7.5 22
      vertex -27 7.5 8
      vertex -27.5 7.5 22
    endloop
  endfacet
  facet normal 0 1 -0
    outer loop
      vertex -27.5 7.5 22
      vertex -27 7.5 8
      vertex -27.5 7.5 8
    endloop
  endfacet
  facet normal 1 0 0
    outer loop
      vertex -27.5 9.5 8
      vertex -27.5 9.5 20
      vertex -27.5 7.5 22
    endloop
  endfacet
  facet normal 1 0 0
    outer loop
      vertex -27.5 7.5 8
      vertex -27.5 9.5 8
      vertex -27.5 7.5 22
    endloop
  endfacet
  facet normal 0 1 0
    outer loop
      vertex -27.5 9.5 20
      vertex -27.5 9.5 8
      vertex -28.5 9.5 20
    endloop
  endfacet
  facet normal 0 1 -0
    outer loop
      vertex -28.5 9.5 20
      vertex -27.5 9.5 8
      vertex -28.5 9.5 8
    endloop
  endfacet
  facet normal -1 0 0
    outer loop
      vertex -28.5 9.5 20
      vertex -28.5 9.5 8
      vertex -28.5 7.5 22
    endloop
  endfacet
  facet normal -1 0 0
    outer loop
      vertex -28.5 7.5 22
      vertex -28.5 9.5 8
      vertex -28.5 7.5 8
    endloop
  endfacet
  facet normal 0 1 0
    outer loop
      vertex -28.5 7.5 22
      vertex -28.5 7.5 8
      vertex -29.5 7.5 22
    endloop
  endfacet
  facet normal 0 1 -0
    outer loop
      vertex -29.5 7.5 22
      vertex -28.5 7.5 8
      vertex -29.5 7.5 8
    endloop
  endfacet
  facet normal 1 0 0
    outer loop
      vertex -29.5 9.5 8
      vertex -29.5 9.5 20
      vertex -29.5 7.5 22
    endloop
  endfacet
  facet normal 1 0 0
    outer loop
      vertex -29.5 7.5 8
      vertex -29.5 9.5 8
      vertex -29.5 7.5 22
    endloop
  endfacet
  facet normal 0 1 0
    outer loop
      vertex -29.5 9.5 20
      vertex -29.5 9.5 8
      vertex -30.5 9.5 20
    endloop
  endfacet
  facet normal 0 1 -0
    outer loop
      vertex -30.5 9.5 20
      vertex -29.5 9.5 8
      vertex -30.5 9.5 8
    endloop
  endfacet
  facet normal -1 0 0
    outer loop
      vertex -30.5 9.5 20
      vertex -30.5 9.5 8
      vertex -30.5 7.5 22
    endloop
  endfacet
  facet normal -1 0 0
    outer loop
      vertex -30.5 7.5 22
      vertex -30.5 9.5 8
      vertex -30.5 7.5 8
    endloop
  endfacet
  facet normal 0 1 0
    outer loop
      vertex -30.5 7.5 22
      vertex -30.5 7.5 8
      vertex -31.5 7.5 22
    endloop
  endfacet
  facet normal 0 1 -0
    outer loop
      vertex -31.5 7.5 22
      vertex -30.5 7.5 8
      vertex -31.5 7.5 8
    endloop
  endfacet
  facet normal 1 0 0
    outer loop
      vertex -31.5 9.5 8
      vertex -31.5 9.5 20
      vertex -31.5 7.5 22
    endloop
  endfacet
  facet normal 1 0 0
    outer loop
      vertex -31.5 7.5 8
      vertex -31.5 9.5 8
      vertex -31.5 7.5 22
    endloop
  endfacet
  facet normal 0 1 0
    outer loop
      vertex -31.5 9.5 20
      vertex -31.5 9.5 8
      vertex -32.5 9.5 20
    endloop
  endfacet
  facet normal 0 1 -0
    outer loop
      vertex -32.5 9.5 20
      vertex -31.5 9.5 8
      vertex -32.5 9.5 8
    endloop
  endfacet
  facet normal -1 0 0
    outer loop
      vertex -32.5 9.5 20
      vertex -32.5 9.5 8
      vertex -32.5 7.5 22
    endloop
  endfacet
  facet normal -1 0 0
    outer loop
      vertex -32.5 7.5 22
      vertex -32.5 9.5 8
      vertex -32.5 7.5 8
    endloop
  endfacet
  facet normal 0 1 0
    outer loop
      vertex -32.5 7.5 22
      vertex -32.5 7.5 8
      vertex -33.5 7.5 22
    endloop
  endfacet
  facet normal 0 1 -0
    outer loop
      vertex -33.5 7.5 22
      vertex -32.5 7.5 8
      vertex -33.5 7.5 8
    endloop
  endfacet
  facet normal 1 0 0
    outer loop
      vertex -33.5 9.5 8
      vertex -33.5 9.5 20
      vertex -33.5 7.5 22
    endloop
  endfacet
  facet normal 1 0 0
    outer loop
      vertex -33.5 7.5 8
      vertex -33.5 9.5 8
      vertex -33.5 7.5 22
    endloop
  endfacet
  facet normal 0 1 0
    outer loop
      vertex -33.5 9.5 20
      vertex -33.5 9.5 8
      vertex -34.5 9.5 20
    endloop
  endfacet
  facet normal 0 1 -0
    outer loop
      vertex -34.5 9.5 20
      vertex -33.5 9.5 8
      vertex -34.5 9.5 8
    endloop
  endfacet
  facet normal -1 0 0
    outer loop
      vertex -34.5 9.5 20
      vertex -34.5 9.5 8
      vertex -34.5 7.5 22
    endloop
  endfacet
  facet normal -1 0 0
    outer loop
      vertex -34.5 7.5 22
      vertex -34.5 9.5 8
      vertex -34.5 7.5 8
    endloop
  endfacet
  facet normal 0 1 0
    outer loop
      vertex -34.5 7.5 22
      vertex -34.5 7.5 8
      vertex -35.5 7.5 22
    endloop
  endfacet
  facet normal 0 1 -0
    outer loop
      vertex -35.5 7.5 22
      vertex -34.5 7.5 8
      vertex -35.5 7.5 8
    endloop
  endfacet
  facet normal 1 0 0
    outer loop
      vertex -35.5 9.5 8
      vertex -35.5 9.5 20
      vertex -35.5 7.5 22
    endloop
  endfacet
  facet normal 1 0 0
    outer loop
      vertex -35.5 7.5 8
      vertex -35.5 9.5 8
      vertex -35.5 7.5 22
    endloop
  endfacet
  facet normal 0 1 0
    outer loop
      vertex -35.5 9.5 20
      vertex -35.5 9.5 8
      vertex -36.5 9.5 20
    endloop
  endfacet
  facet normal 0 1 -0
    outer loop
      vertex -36.5 9.5 20
      vertex -35.5 9.5 8
      vertex -36.5 9.5 8
    endloop
  endfacet
  facet normal -1 0 0
    outer loop
      vertex -36.5 9.5 20
      vertex -36.5 9.5 8
      vertex -36.5 7.5 22
    endloop
  endfacet
  facet normal -1 0 0
    outer loop
      vertex -36.5 7.5 22
      vertex -36.5 9.5 8
      vertex -36.5 7.5 8
    endloop
  endfacet
  facet normal 0 1 0
    outer loop
      vertex -36.5 7.5 22
      vertex -36.5 7.5 8
      vertex -37.5 7.5 22
    endloop
  endfacet
  facet normal 0 1 -0
    outer loop
      vertex -37.5 7.5 22
      vertex -36.5 7.5 8
      vertex -37.5 7.5 8
    endloop
  endfacet
  facet normal 1 0 0
    outer loop
      vertex -37.5 9.5 8
      vertex -37.5 9.5 20
      vertex -37.5 7.5 22
    endloop
  endfacet
  facet normal 1 0 0
    outer loop
      vertex -37.5 7.5 8
      vertex -37.5 9.5 8
      vertex -37.5 7.5 22
    endloop
  endfacet
  facet normal 0 1 0
    outer loop
      vertex -37.5 9.5 20
      vertex -37.5 9.5 8
      vertex -38.5 9.5 20
    endloop
  endfacet
  facet normal 0 1 -0
    outer loop
      vertex -38.5 9.5 20
      vertex -37.5 9.5 8
      vertex -38.5 9.5 8
    endloop
  endfacet
  facet normal -1 0 0
    outer loop
      vertex -38.5 9.5 20
      vertex -38.5 9.5 8
      vertex -38.5 7.5 22
    endloop
  endfacet
  facet normal -1 0 0
    outer loop
      vertex -38.5 7.5 22
      vertex -38.5 9.5 8
      vertex -38.5 7.5 8
    endloop
  endfacet
  facet normal 0 1 0
    outer loop
      vertex -38.5 7.5 22
      vertex -38.5 7.5 8
      vertex -39.5 7.5 22
    endloop
  endfacet
  facet normal 0 1 -0
    outer loop
      vertex -39.5 7.5 22
      vertex -38.5 7.5 8
      vertex -39.5 7.5 8
    endloop
  endfacet
  facet normal 1 0 0
    outer loop
      vertex -39.5 9.5 8
      vertex -39.5 9.5 20
      vertex -39.5 7.5 22
    endloop
  endfacet
  facet normal 1 0 0
    outer loop
      vertex -39.5 7.5 8
      vertex -39.5 9.5 8
      vertex -39.5 7.5 22
    endloop
  endfacet
  facet normal 0 1 0
    outer loop
      vertex -39.5 9.5 20
      vertex -39.5 9.5 8
      vertex -40.5 9.5 20
    endloop
  endfacet
  facet normal 0 1 -0
    outer loop
      vertex -40.5 9.5 20
      vertex -39.5 9.5 8
      vertex -40.5 9.5 8
    endloop
  endfacet
endsolid OpenSCAD_Model
